<svg id="Layer_1" data-name="Layer 1" xmlns="http://www.w3.org/2000/svg" viewBox="0 0 9.31 24.37"><path d="M13.05,17.17l-.15.58c-.07.26-.15.52-.22.77a27.9,27.9,0,0,1-3.15,6.85.9.9,0,0,0-.38-.29.94.94,0,0,1-.3.06h0s0-.05.08-.12L9,24.88a.59.59,0,0,0,.43-.56.5.5,0,0,0,0-.12l.16-.26a27.27,27.27,0,0,0,2.79-7c1.37-5.65.45-10.59-2.74-14.71L9.44,2h0A.57.57,0,0,0,9,1.44l-.11-.13-.1-.1h.11a.94.94,0,0,1,.3.05A.72.72,0,0,0,9.49,1a16.72,16.72,0,0,1,2.29,3.34c.13.25.25.49.37.74A18.4,18.4,0,0,1,13.05,17.17Z" transform="translate(-8.04 -1)"/><path d="M11.57,4.48a.4.4,0,0,0-.13.56.37.37,0,0,0,.25.18.43.43,0,0,0,.31,0L16,2.7a.4.4,0,0,0,.13-.56A.43.43,0,0,0,15.84,2a.49.49,0,0,0-.31.05Z" transform="translate(-8.04 -1)"/><path d="M17.13,20a.4.4,0,0,1,.16.55.4.4,0,0,1-.24.2.38.38,0,0,1-.31,0l-4.07-2.16A.41.41,0,0,1,12.5,18a.42.42,0,0,1,.24-.2.4.4,0,0,1,.32,0Z" transform="translate(-8.04 -1)"/><path d="M8.85,1.2H8.74a.58.58,0,0,0-.19,0,.72.72,0,0,0,.29.06h0a.73.73,0,0,0,.3-.06A.94.94,0,0,0,8.85,1.2Z" transform="translate(-8.04 -1)"/><path d="M9.15,1.25a.94.94,0,0,0-.3-.05H8.74a.58.58,0,0,0-.19,0,.82.82,0,1,0,1.08,1,.75.75,0,0,0,0-.26A.81.81,0,0,0,9.15,1.25ZM8.85,2.6a.59.59,0,0,1,0-1.17H9A.57.57,0,0,1,9.44,2h0A.6.6,0,0,1,8.85,2.6Z" transform="translate(-8.04 -1)"/><path d="M8.85,2.83a.82.82,0,0,0-.3,1.58,1.07,1.07,0,0,0,.3.06.94.94,0,0,0,.3-.06.81.81,0,0,0,.52-.76A.82.82,0,0,0,8.85,2.83Zm0,1.4a.58.58,0,0,1-.58-.58.59.59,0,0,1,.58-.59.6.6,0,0,1,.59.59A.59.59,0,0,1,8.85,4.23Z" transform="translate(-8.04 -1)"/><path d="M9.15,4.41a.73.73,0,0,0-.3-.06.8.8,0,0,0-.3.06A.81.81,0,0,0,8,5.17a.82.82,0,0,0,.51.76,1,1,0,0,0,.3.05.94.94,0,0,0,.3-.05.81.81,0,0,0,.52-.76A.81.81,0,0,0,9.15,4.41Zm-.3,1.34a.59.59,0,0,1,0-1.17.59.59,0,1,1,0,1.17Z" transform="translate(-8.04 -1)"/><path d="M9.15,5.93a.73.73,0,0,0-.3-.06.82.82,0,0,0,0,1.63.82.82,0,0,0,.82-.82A.79.79,0,0,0,9.15,5.93Zm-.3,1.34a.59.59,0,0,1,0-1.17.59.59,0,1,1,0,1.17Z" transform="translate(-8.04 -1)"/><path d="M8.85,7.5a.82.82,0,0,0,0,1.64.82.82,0,1,0,0-1.64Zm0,1.4a.58.58,0,1,1,0-1.16.58.58,0,1,1,0,1.16Z" transform="translate(-8.04 -1)"/><path d="M8.85,9.25a.82.82,0,0,0-.3,1.58.8.8,0,0,0,.3.06.73.73,0,0,0,.3-.06.81.81,0,0,0,.52-.76A.82.82,0,0,0,8.85,9.25Zm0,1.41a.59.59,0,0,1-.58-.59.58.58,0,0,1,.58-.58.59.59,0,0,1,.59.58A.6.6,0,0,1,8.85,10.66Z" transform="translate(-8.04 -1)"/><path d="M9.15,10.83a.73.73,0,0,0-.3-.06.8.8,0,0,0-.3.06.82.82,0,0,0,.3,1.58.82.82,0,0,0,.82-.82A.81.81,0,0,0,9.15,10.83Zm-.3,1.34a.58.58,0,1,1,0-1.16.58.58,0,1,1,0,1.16Z" transform="translate(-8.04 -1)"/><path d="M8.85,12.41a.82.82,0,0,0,0,1.63.73.73,0,0,0,.3-.06.81.81,0,0,0,.52-.76A.82.82,0,0,0,8.85,12.41Zm0,1.4a.59.59,0,0,1,0-1.17.59.59,0,1,1,0,1.17Z" transform="translate(-8.04 -1)"/><path d="M9.15,14a.94.94,0,0,0-.3-.06,1.07,1.07,0,0,0-.3.06.82.82,0,0,0-.51.76.81.81,0,0,0,.51.76.8.8,0,0,0,.3.06.73.73,0,0,0,.3-.06.81.81,0,0,0,.52-.76A.81.81,0,0,0,9.15,14Zm-.3,1.35a.59.59,0,0,1-.58-.59.58.58,0,0,1,.58-.58.59.59,0,0,1,.59.58A.6.6,0,0,1,8.85,15.33Z" transform="translate(-8.04 -1)"/><path d="M9.15,15.5a.73.73,0,0,0-.3-.06.8.8,0,0,0-.3.06.82.82,0,0,0,.3,1.58.82.82,0,0,0,.82-.82A.81.81,0,0,0,9.15,15.5Zm-.3,1.34a.58.58,0,0,1,0-1.16.58.58,0,1,1,0,1.16Z" transform="translate(-8.04 -1)"/><path d="M8.85,17.08A.81.81,0,0,0,8,17.9a.82.82,0,0,0,.81.81.73.73,0,0,0,.3-.06.79.79,0,0,0,.52-.75A.82.82,0,0,0,8.85,17.08Zm0,1.4a.59.59,0,0,1,0-1.17.59.59,0,1,1,0,1.17Z" transform="translate(-8.04 -1)"/><path d="M9.15,18.65a.94.94,0,0,0-.3,0,1,1,0,0,0-.3,0,.82.82,0,0,0-.51.76.81.81,0,0,0,.51.76.8.8,0,0,0,.3.06.73.73,0,0,0,.3-.06.81.81,0,0,0,.52-.76A.81.81,0,0,0,9.15,18.65ZM8.85,20a.59.59,0,0,1,0-1.17.59.59,0,1,1,0,1.17Z" transform="translate(-8.04 -1)"/><path d="M9.15,20.17a.73.73,0,0,0-.3-.06.8.8,0,0,0-.3.06.82.82,0,1,0,.6,0Zm-.3,1.35a.59.59,0,0,1-.58-.59.58.58,0,0,1,.58-.58.59.59,0,0,1,.59.58A.6.6,0,0,1,8.85,21.52Z" transform="translate(-8.04 -1)"/><path d="M8.85,21.75a.82.82,0,0,0-.81.82.81.81,0,0,0,.81.81.82.82,0,0,0,.82-.81A.82.82,0,0,0,8.85,21.75Zm0,1.4a.59.59,0,0,1,0-1.17.59.59,0,1,1,0,1.17Z" transform="translate(-8.04 -1)"/><path d="M9.58,23.94a.83.83,0,0,0-.73-.44.82.82,0,0,0-.3,1.58,1.36,1.36,0,0,0,.29.06h0a.94.94,0,0,0,.3-.06.81.81,0,0,0,.52-.76A.79.79,0,0,0,9.58,23.94ZM9,24.88l-.16,0a.58.58,0,0,1-.58-.58.59.59,0,0,1,.58-.59.57.57,0,0,1,.57.47.5.5,0,0,1,0,.12A.59.59,0,0,1,9,24.88Z" transform="translate(-8.04 -1)"/><path d="M8.92,25H8.85a.8.8,0,0,0-.3.06,1.36,1.36,0,0,0,.29.06h0a.94.94,0,0,0,.3-.06A.86.86,0,0,0,8.92,25Z" transform="translate(-8.04 -1)"/></svg>